<mxfile host="Electron" modified="2024-01-09T20:31:09.848Z" agent="Mozilla/5.0 (Macintosh; Intel Mac OS X 10_15_7) AppleWebKit/537.36 (KHTML, like Gecko) draw.io/22.1.16 Chrome/120.0.6099.109 Electron/28.1.0 Safari/537.36" etag="5okgKxv56TtRxklR-_64" version="22.1.16" type="device">
  <diagram name="Page-1" id="EuUw42VtQpdWw6-Kvyys">
    <mxGraphModel dx="2271" dy="2099" grid="1" gridSize="10" guides="1" tooltips="1" connect="1" arrows="1" fold="1" page="1" pageScale="1" pageWidth="850" pageHeight="1100" math="0" shadow="0">
      <root>
        <mxCell id="0" />
        <mxCell id="1" parent="0" />
        <mxCell id="q6OSs7CihoF1HEclPWef-27" style="rounded=0;orthogonalLoop=1;jettySize=auto;html=1;exitX=-0.003;exitY=0.375;exitDx=0;exitDy=0;entryX=1;entryY=0;entryDx=0;entryDy=0;strokeWidth=2;endArrow=block;endFill=1;exitPerimeter=0;" edge="1" parent="1" source="H1L8KWAx3ZCyEtPVx_r6-3" target="q6OSs7CihoF1HEclPWef-25">
          <mxGeometry relative="1" as="geometry" />
        </mxCell>
        <mxCell id="H1L8KWAx3ZCyEtPVx_r6-2" value="View" style="swimlane;childLayout=stackLayout;horizontal=1;startSize=50;horizontalStack=0;rounded=1;fontSize=14;fontStyle=0;strokeWidth=2;resizeParent=0;resizeLast=1;shadow=0;dashed=0;align=center;arcSize=4;whiteSpace=wrap;html=1;" parent="1" vertex="1">
          <mxGeometry x="80" y="70" width="160" height="170" as="geometry" />
        </mxCell>
        <mxCell id="H1L8KWAx3ZCyEtPVx_r6-3" value="+init&lt;br&gt;-getConstraints&lt;br&gt;+onDrawNotification&lt;br&gt;+onCounterNotification&lt;br&gt;+onTextNotification&lt;br&gt;+onClearGraphNotification&lt;br&gt;+onQuitNotification" style="align=left;strokeColor=none;fillColor=none;spacingLeft=4;fontSize=12;verticalAlign=top;resizable=0;rotatable=0;part=1;html=1;" parent="H1L8KWAx3ZCyEtPVx_r6-2" vertex="1">
          <mxGeometry y="50" width="160" height="120" as="geometry" />
        </mxCell>
        <mxCell id="H1L8KWAx3ZCyEtPVx_r6-15" style="edgeStyle=orthogonalEdgeStyle;rounded=0;orthogonalLoop=1;jettySize=auto;html=1;exitX=0.5;exitY=1;exitDx=0;exitDy=0;" parent="H1L8KWAx3ZCyEtPVx_r6-2" source="H1L8KWAx3ZCyEtPVx_r6-3" target="H1L8KWAx3ZCyEtPVx_r6-3" edge="1">
          <mxGeometry relative="1" as="geometry" />
        </mxCell>
        <mxCell id="H1L8KWAx3ZCyEtPVx_r6-10" value="ViewObserver &amp;lt;I&amp;gt;" style="swimlane;childLayout=stackLayout;horizontal=1;startSize=50;horizontalStack=0;rounded=1;fontSize=14;fontStyle=0;strokeWidth=2;resizeParent=0;resizeLast=1;shadow=0;dashed=0;align=center;arcSize=4;whiteSpace=wrap;html=1;" parent="1" vertex="1">
          <mxGeometry x="310" y="70" width="160" height="140" as="geometry" />
        </mxCell>
        <mxCell id="H1L8KWAx3ZCyEtPVx_r6-11" value="+onDrawNotification&lt;br style=&quot;border-color: var(--border-color);&quot;&gt;+onCounterNotification&lt;br style=&quot;border-color: var(--border-color);&quot;&gt;+onTextNotification&lt;br style=&quot;border-color: var(--border-color);&quot;&gt;+onClearGraphNotification&lt;br style=&quot;border-color: var(--border-color);&quot;&gt;+onQuitNotification" style="align=left;strokeColor=none;fillColor=none;spacingLeft=4;fontSize=12;verticalAlign=top;resizable=0;rotatable=0;part=1;html=1;" parent="H1L8KWAx3ZCyEtPVx_r6-10" vertex="1">
          <mxGeometry y="50" width="160" height="90" as="geometry" />
        </mxCell>
        <mxCell id="H1L8KWAx3ZCyEtPVx_r6-41" style="rounded=0;orthogonalLoop=1;jettySize=auto;html=1;exitX=1;exitY=0;exitDx=0;exitDy=0;strokeWidth=2;endArrow=block;endFill=1;startArrow=none;startFill=0;entryX=0;entryY=0;entryDx=0;entryDy=0;entryPerimeter=0;" parent="1" source="H1L8KWAx3ZCyEtPVx_r6-9" edge="1" target="q6OSs7CihoF1HEclPWef-3">
          <mxGeometry relative="1" as="geometry">
            <mxPoint x="770" y="120" as="targetPoint" />
          </mxGeometry>
        </mxCell>
        <mxCell id="H1L8KWAx3ZCyEtPVx_r6-8" value="Loop" style="swimlane;childLayout=stackLayout;horizontal=1;startSize=50;horizontalStack=0;rounded=1;fontSize=14;fontStyle=0;strokeWidth=2;resizeParent=0;resizeLast=1;shadow=0;dashed=0;align=center;arcSize=4;whiteSpace=wrap;html=1;" parent="1" vertex="1">
          <mxGeometry x="520" y="70" width="160" height="180" as="geometry" />
        </mxCell>
        <mxCell id="H1L8KWAx3ZCyEtPVx_r6-9" value="+isRunning&lt;br&gt;+start&lt;br&gt;+pause&lt;br&gt;+reset&lt;br&gt;+quit&lt;br&gt;+toggleSocialDistancing&lt;br&gt;+registerObserver&lt;br&gt;-render" style="align=left;strokeColor=none;fillColor=none;spacingLeft=4;fontSize=12;verticalAlign=top;resizable=0;rotatable=0;part=1;html=1;" parent="H1L8KWAx3ZCyEtPVx_r6-8" vertex="1">
          <mxGeometry y="50" width="160" height="130" as="geometry" />
        </mxCell>
        <mxCell id="q6OSs7CihoF1HEclPWef-43" style="edgeStyle=orthogonalEdgeStyle;rounded=0;orthogonalLoop=1;jettySize=auto;html=1;exitX=0;exitY=0.5;exitDx=0;exitDy=0;entryX=0.75;entryY=0;entryDx=0;entryDy=0;strokeWidth=2;endArrow=block;endFill=1;" edge="1" parent="1" source="H1L8KWAx3ZCyEtPVx_r6-6" target="q6OSs7CihoF1HEclPWef-24">
          <mxGeometry relative="1" as="geometry" />
        </mxCell>
        <mxCell id="q6OSs7CihoF1HEclPWef-44" style="edgeStyle=orthogonalEdgeStyle;rounded=0;orthogonalLoop=1;jettySize=auto;html=1;exitX=1;exitY=0.5;exitDx=0;exitDy=0;entryX=0.25;entryY=0;entryDx=0;entryDy=0;strokeWidth=2;endArrow=block;endFill=1;" edge="1" parent="1" source="H1L8KWAx3ZCyEtPVx_r6-6" target="H1L8KWAx3ZCyEtPVx_r6-8">
          <mxGeometry relative="1" as="geometry" />
        </mxCell>
        <mxCell id="H1L8KWAx3ZCyEtPVx_r6-6" value="Controller" style="swimlane;childLayout=stackLayout;horizontal=1;startSize=50;horizontalStack=0;rounded=1;fontSize=14;fontStyle=0;strokeWidth=2;resizeParent=0;resizeLast=1;shadow=0;dashed=0;align=center;arcSize=4;whiteSpace=wrap;html=1;" parent="1" vertex="1">
          <mxGeometry x="310" y="-80" width="160" height="80" as="geometry" />
        </mxCell>
        <mxCell id="H1L8KWAx3ZCyEtPVx_r6-7" value="+addAllListeners" style="align=left;strokeColor=none;fillColor=none;spacingLeft=4;fontSize=12;verticalAlign=top;resizable=0;rotatable=0;part=1;html=1;" parent="H1L8KWAx3ZCyEtPVx_r6-6" vertex="1">
          <mxGeometry y="50" width="160" height="30" as="geometry" />
        </mxCell>
        <mxCell id="H1L8KWAx3ZCyEtPVx_r6-32" value="Physics" style="swimlane;childLayout=stackLayout;horizontal=1;startSize=50;horizontalStack=0;rounded=1;fontSize=14;fontStyle=0;strokeWidth=2;resizeParent=0;resizeLast=1;shadow=0;dashed=0;align=center;arcSize=4;whiteSpace=wrap;html=1;" parent="1" vertex="1">
          <mxGeometry x="730" y="-150" width="160" height="170" as="geometry" />
        </mxCell>
        <mxCell id="H1L8KWAx3ZCyEtPVx_r6-33" value="+bounceOffBoundary&lt;br&gt;+ballCollision&lt;br&gt;+bounceOffOtherBall&lt;br&gt;+barrierCollision&lt;br&gt;+bounceOffBarrier&lt;br&gt;-getDistance&lt;br&gt;-barrierCollisionSide" style="align=left;strokeColor=none;fillColor=none;spacingLeft=4;fontSize=12;verticalAlign=top;resizable=0;rotatable=0;part=1;html=1;" parent="H1L8KWAx3ZCyEtPVx_r6-32" vertex="1">
          <mxGeometry y="50" width="160" height="120" as="geometry" />
        </mxCell>
        <mxCell id="H1L8KWAx3ZCyEtPVx_r6-37" value="LaunchPandemicSimulator" style="swimlane;childLayout=stackLayout;horizontal=1;startSize=50;horizontalStack=0;rounded=1;fontSize=14;fontStyle=0;strokeWidth=2;resizeParent=0;resizeLast=1;shadow=0;dashed=0;align=center;arcSize=4;whiteSpace=wrap;html=1;" parent="1" vertex="1">
          <mxGeometry x="295" y="-250" width="190" height="80" as="geometry" />
        </mxCell>
        <mxCell id="H1L8KWAx3ZCyEtPVx_r6-38" value="+main" style="align=left;strokeColor=none;fillColor=none;spacingLeft=4;fontSize=12;verticalAlign=top;resizable=0;rotatable=0;part=1;html=1;" parent="H1L8KWAx3ZCyEtPVx_r6-37" vertex="1">
          <mxGeometry y="50" width="190" height="30" as="geometry" />
        </mxCell>
        <mxCell id="H1L8KWAx3ZCyEtPVx_r6-50" value="&amp;lt;&amp;lt;global&amp;gt;&amp;gt;&lt;br&gt;Constants" style="swimlane;childLayout=stackLayout;horizontal=1;startSize=50;horizontalStack=0;rounded=1;fontSize=14;fontStyle=0;strokeWidth=2;resizeParent=0;resizeLast=1;shadow=0;dashed=0;align=center;arcSize=4;whiteSpace=wrap;html=1;" parent="1" vertex="1">
          <mxGeometry x="70" y="-250" width="160" height="80" as="geometry" />
        </mxCell>
        <mxCell id="H1L8KWAx3ZCyEtPVx_r6-52" style="edgeStyle=orthogonalEdgeStyle;rounded=0;orthogonalLoop=1;jettySize=auto;html=1;exitX=0.5;exitY=1;exitDx=0;exitDy=0;" parent="H1L8KWAx3ZCyEtPVx_r6-50" edge="1">
          <mxGeometry relative="1" as="geometry">
            <mxPoint x="80" y="80" as="sourcePoint" />
            <mxPoint x="80" y="80" as="targetPoint" />
          </mxGeometry>
        </mxCell>
        <mxCell id="H1L8KWAx3ZCyEtPVx_r6-59" style="edgeStyle=orthogonalEdgeStyle;rounded=0;orthogonalLoop=1;jettySize=auto;html=1;exitX=0.5;exitY=1;exitDx=0;exitDy=0;exitPerimeter=0;entryX=0.5;entryY=0;entryDx=0;entryDy=0;strokeWidth=2;endArrow=block;endFill=1;" parent="1" source="H1L8KWAx3ZCyEtPVx_r6-58" target="H1L8KWAx3ZCyEtPVx_r6-37" edge="1">
          <mxGeometry relative="1" as="geometry" />
        </mxCell>
        <mxCell id="H1L8KWAx3ZCyEtPVx_r6-58" value="" style="strokeWidth=2;html=1;shape=mxgraph.flowchart.start_2;whiteSpace=wrap;gradientColor=none;fillColor=#000000;" parent="1" vertex="1">
          <mxGeometry x="370" y="-370" width="40" height="40" as="geometry" />
        </mxCell>
        <mxCell id="bJIkvpA4lVAIt0Bt3T95-15" style="edgeStyle=orthogonalEdgeStyle;rounded=0;orthogonalLoop=1;jettySize=auto;html=1;exitX=0;exitY=0;exitDx=0;exitDy=0;entryX=1;entryY=0;entryDx=0;entryDy=0;strokeWidth=2;endArrow=block;endFill=1;" parent="1" source="H1L8KWAx3ZCyEtPVx_r6-9" target="H1L8KWAx3ZCyEtPVx_r6-11" edge="1">
          <mxGeometry relative="1" as="geometry">
            <Array as="points">
              <mxPoint x="510" y="120" />
              <mxPoint x="510" y="120" />
            </Array>
          </mxGeometry>
        </mxCell>
        <mxCell id="bJIkvpA4lVAIt0Bt3T95-16" style="edgeStyle=orthogonalEdgeStyle;rounded=0;orthogonalLoop=1;jettySize=auto;html=1;exitX=1;exitY=0;exitDx=0;exitDy=0;entryX=0;entryY=0;entryDx=0;entryDy=0;strokeWidth=2;dashed=1;endArrow=block;endFill=0;" parent="1" source="H1L8KWAx3ZCyEtPVx_r6-3" target="H1L8KWAx3ZCyEtPVx_r6-11" edge="1">
          <mxGeometry relative="1" as="geometry">
            <Array as="points">
              <mxPoint x="250" y="120" />
              <mxPoint x="250" y="120" />
            </Array>
          </mxGeometry>
        </mxCell>
        <mxCell id="q6OSs7CihoF1HEclPWef-21" style="rounded=0;orthogonalLoop=1;jettySize=auto;html=1;exitX=0.75;exitY=0;exitDx=0;exitDy=0;entryX=0;entryY=1;entryDx=0;entryDy=0;strokeWidth=2;endArrow=block;endFill=1;" edge="1" parent="1" source="q6OSs7CihoF1HEclPWef-2" target="q6OSs7CihoF1HEclPWef-7">
          <mxGeometry relative="1" as="geometry" />
        </mxCell>
        <mxCell id="q6OSs7CihoF1HEclPWef-22" style="rounded=0;orthogonalLoop=1;jettySize=auto;html=1;exitX=0.5;exitY=0;exitDx=0;exitDy=0;entryX=0.5;entryY=1;entryDx=0;entryDy=0;endArrow=block;endFill=1;strokeWidth=2;" edge="1" parent="1" source="q6OSs7CihoF1HEclPWef-2" target="H1L8KWAx3ZCyEtPVx_r6-33">
          <mxGeometry relative="1" as="geometry" />
        </mxCell>
        <mxCell id="q6OSs7CihoF1HEclPWef-2" value="Simulation" style="swimlane;childLayout=stackLayout;horizontal=1;startSize=50;horizontalStack=0;rounded=1;fontSize=14;fontStyle=0;strokeWidth=2;resizeParent=0;resizeLast=1;shadow=0;dashed=0;align=center;arcSize=4;whiteSpace=wrap;html=1;" vertex="1" parent="1">
          <mxGeometry x="730" y="70" width="160" height="160" as="geometry" />
        </mxCell>
        <mxCell id="q6OSs7CihoF1HEclPWef-3" value="+start&lt;br&gt;+update&lt;br&gt;+spreadSickness&lt;br&gt;-createBalls&lt;br&gt;-createBarriers" style="align=left;strokeColor=none;fillColor=none;spacingLeft=4;fontSize=12;verticalAlign=top;resizable=0;rotatable=0;part=1;html=1;" vertex="1" parent="q6OSs7CihoF1HEclPWef-2">
          <mxGeometry y="50" width="160" height="110" as="geometry" />
        </mxCell>
        <mxCell id="q6OSs7CihoF1HEclPWef-6" value="State" style="swimlane;childLayout=stackLayout;horizontal=1;startSize=50;horizontalStack=0;rounded=1;fontSize=14;fontStyle=0;strokeWidth=2;resizeParent=0;resizeLast=1;shadow=0;dashed=0;align=center;arcSize=4;whiteSpace=wrap;html=1;" vertex="1" parent="1">
          <mxGeometry x="940" y="-70" width="160" height="80" as="geometry" />
        </mxCell>
        <mxCell id="q6OSs7CihoF1HEclPWef-7" value="+getCounters" style="align=left;strokeColor=none;fillColor=none;spacingLeft=4;fontSize=12;verticalAlign=top;resizable=0;rotatable=0;part=1;html=1;" vertex="1" parent="q6OSs7CihoF1HEclPWef-6">
          <mxGeometry y="50" width="160" height="30" as="geometry" />
        </mxCell>
        <mxCell id="q6OSs7CihoF1HEclPWef-8" value="StopWatch" style="swimlane;childLayout=stackLayout;horizontal=1;startSize=50;horizontalStack=0;rounded=1;fontSize=14;fontStyle=0;strokeWidth=2;resizeParent=0;resizeLast=1;shadow=0;dashed=0;align=center;arcSize=4;whiteSpace=wrap;html=1;" vertex="1" parent="1">
          <mxGeometry x="940" y="60" width="160" height="140" as="geometry" />
        </mxCell>
        <mxCell id="q6OSs7CihoF1HEclPWef-9" value="+start&lt;br&gt;+stop&lt;br&gt;+getPausedTime&lt;br&gt;+getElapsedTime&lt;br&gt;+getElapsedTimeInSeconds" style="align=left;strokeColor=none;fillColor=none;spacingLeft=4;fontSize=12;verticalAlign=top;resizable=0;rotatable=0;part=1;html=1;" vertex="1" parent="q6OSs7CihoF1HEclPWef-8">
          <mxGeometry y="50" width="160" height="90" as="geometry" />
        </mxCell>
        <mxCell id="q6OSs7CihoF1HEclPWef-10" value="Barrier" style="swimlane;childLayout=stackLayout;horizontal=1;startSize=50;horizontalStack=0;rounded=1;fontSize=14;fontStyle=0;strokeWidth=2;resizeParent=0;resizeLast=1;shadow=0;dashed=0;align=center;arcSize=4;whiteSpace=wrap;html=1;" vertex="1" parent="1">
          <mxGeometry x="940" y="250" width="160" height="80" as="geometry" />
        </mxCell>
        <mxCell id="q6OSs7CihoF1HEclPWef-11" value="+paint" style="align=left;strokeColor=none;fillColor=none;spacingLeft=4;fontSize=12;verticalAlign=top;resizable=0;rotatable=0;part=1;html=1;" vertex="1" parent="q6OSs7CihoF1HEclPWef-10">
          <mxGeometry y="50" width="160" height="30" as="geometry" />
        </mxCell>
        <mxCell id="q6OSs7CihoF1HEclPWef-12" value="Ball" style="swimlane;childLayout=stackLayout;horizontal=1;startSize=50;horizontalStack=0;rounded=1;fontSize=14;fontStyle=0;strokeWidth=2;resizeParent=0;resizeLast=1;shadow=0;dashed=0;align=center;arcSize=4;whiteSpace=wrap;html=1;" vertex="1" parent="1">
          <mxGeometry x="730" y="280" width="160" height="180" as="geometry" />
        </mxCell>
        <mxCell id="q6OSs7CihoF1HEclPWef-13" value="+paint&lt;br&gt;-getColor&lt;br&gt;+centerX&lt;br&gt;+centerY&lt;br&gt;+move&lt;br&gt;+makeCarrier&lt;br&gt;+makeSick&lt;br&gt;+makeHealedOrDead" style="align=left;strokeColor=none;fillColor=none;spacingLeft=4;fontSize=12;verticalAlign=top;resizable=0;rotatable=0;part=1;html=1;" vertex="1" parent="q6OSs7CihoF1HEclPWef-12">
          <mxGeometry y="50" width="160" height="130" as="geometry" />
        </mxCell>
        <mxCell id="q6OSs7CihoF1HEclPWef-17" style="edgeStyle=orthogonalEdgeStyle;rounded=0;orthogonalLoop=1;jettySize=auto;html=1;exitX=0.5;exitY=1;exitDx=0;exitDy=0;entryX=0.5;entryY=0;entryDx=0;entryDy=0;strokeWidth=2;endArrow=block;endFill=1;" edge="1" parent="1" source="q6OSs7CihoF1HEclPWef-3" target="q6OSs7CihoF1HEclPWef-12">
          <mxGeometry relative="1" as="geometry" />
        </mxCell>
        <mxCell id="q6OSs7CihoF1HEclPWef-19" style="rounded=0;orthogonalLoop=1;jettySize=auto;html=1;exitX=1;exitY=0.25;exitDx=0;exitDy=0;entryX=0;entryY=0.25;entryDx=0;entryDy=0;endArrow=block;endFill=1;strokeWidth=2;" edge="1" parent="1" source="q6OSs7CihoF1HEclPWef-3" target="q6OSs7CihoF1HEclPWef-9">
          <mxGeometry relative="1" as="geometry" />
        </mxCell>
        <mxCell id="q6OSs7CihoF1HEclPWef-20" style="rounded=0;orthogonalLoop=1;jettySize=auto;html=1;exitX=1;exitY=0.75;exitDx=0;exitDy=0;strokeWidth=2;endArrow=block;endFill=1;entryX=0;entryY=0;entryDx=0;entryDy=0;" edge="1" parent="1" source="q6OSs7CihoF1HEclPWef-3" target="q6OSs7CihoF1HEclPWef-10">
          <mxGeometry relative="1" as="geometry" />
        </mxCell>
        <mxCell id="q6OSs7CihoF1HEclPWef-24" value="ViewMenu" style="swimlane;childLayout=stackLayout;horizontal=1;startSize=50;horizontalStack=0;rounded=1;fontSize=14;fontStyle=0;strokeWidth=2;resizeParent=0;resizeLast=1;shadow=0;dashed=0;align=center;arcSize=4;whiteSpace=wrap;html=1;" vertex="1" parent="1">
          <mxGeometry x="-140" y="115" width="160" height="90" as="geometry" />
        </mxCell>
        <mxCell id="q6OSs7CihoF1HEclPWef-25" value="+som" style="align=left;strokeColor=none;fillColor=none;spacingLeft=4;fontSize=12;verticalAlign=top;resizable=0;rotatable=0;part=1;html=1;" vertex="1" parent="q6OSs7CihoF1HEclPWef-24">
          <mxGeometry y="50" width="160" height="40" as="geometry" />
        </mxCell>
        <mxCell id="q6OSs7CihoF1HEclPWef-26" style="edgeStyle=orthogonalEdgeStyle;rounded=0;orthogonalLoop=1;jettySize=auto;html=1;exitX=0.5;exitY=1;exitDx=0;exitDy=0;" edge="1" parent="q6OSs7CihoF1HEclPWef-24" source="q6OSs7CihoF1HEclPWef-25" target="q6OSs7CihoF1HEclPWef-25">
          <mxGeometry relative="1" as="geometry" />
        </mxCell>
        <mxCell id="q6OSs7CihoF1HEclPWef-38" style="rounded=0;orthogonalLoop=1;jettySize=auto;html=1;exitX=1;exitY=0;exitDx=0;exitDy=0;entryX=0;entryY=1;entryDx=0;entryDy=0;strokeWidth=2;endArrow=none;endFill=0;startArrow=block;startFill=1;" edge="1" parent="1" source="q6OSs7CihoF1HEclPWef-28" target="H1L8KWAx3ZCyEtPVx_r6-3">
          <mxGeometry relative="1" as="geometry" />
        </mxCell>
        <mxCell id="q6OSs7CihoF1HEclPWef-28" value="ViewStats" style="swimlane;childLayout=stackLayout;horizontal=1;startSize=50;horizontalStack=0;rounded=1;fontSize=14;fontStyle=0;strokeWidth=2;resizeParent=0;resizeLast=1;shadow=0;dashed=0;align=center;arcSize=4;whiteSpace=wrap;html=1;" vertex="1" parent="1">
          <mxGeometry x="-130" y="260" width="160" height="90" as="geometry" />
        </mxCell>
        <mxCell id="q6OSs7CihoF1HEclPWef-30" style="edgeStyle=orthogonalEdgeStyle;rounded=0;orthogonalLoop=1;jettySize=auto;html=1;exitX=0.5;exitY=1;exitDx=0;exitDy=0;" edge="1" parent="q6OSs7CihoF1HEclPWef-28">
          <mxGeometry relative="1" as="geometry">
            <mxPoint x="80" y="170" as="sourcePoint" />
            <mxPoint x="80" y="170" as="targetPoint" />
          </mxGeometry>
        </mxCell>
        <mxCell id="q6OSs7CihoF1HEclPWef-40" value="" style="rounded=0;orthogonalLoop=1;jettySize=auto;html=1;endArrow=none;endFill=0;strokeWidth=2;entryX=0.5;entryY=1;entryDx=0;entryDy=0;startArrow=block;startFill=1;" edge="1" parent="1" source="q6OSs7CihoF1HEclPWef-31" target="H1L8KWAx3ZCyEtPVx_r6-3">
          <mxGeometry relative="1" as="geometry">
            <mxPoint x="150" y="230" as="targetPoint" />
          </mxGeometry>
        </mxCell>
        <mxCell id="q6OSs7CihoF1HEclPWef-31" value="ViewGraph" style="swimlane;childLayout=stackLayout;horizontal=1;startSize=50;horizontalStack=0;rounded=1;fontSize=14;fontStyle=0;strokeWidth=2;resizeParent=0;resizeLast=1;shadow=0;dashed=0;align=center;arcSize=4;whiteSpace=wrap;html=1;" vertex="1" parent="1">
          <mxGeometry x="80" y="300" width="160" height="120" as="geometry" />
        </mxCell>
        <mxCell id="q6OSs7CihoF1HEclPWef-32" value="+reset&lt;br&gt;+paintComponent&lt;br&gt;+statsAsPercentage&lt;br&gt;+updateImage" style="align=left;strokeColor=none;fillColor=none;spacingLeft=4;fontSize=12;verticalAlign=top;resizable=0;rotatable=0;part=1;html=1;" vertex="1" parent="q6OSs7CihoF1HEclPWef-31">
          <mxGeometry y="50" width="160" height="70" as="geometry" />
        </mxCell>
        <mxCell id="q6OSs7CihoF1HEclPWef-33" style="edgeStyle=orthogonalEdgeStyle;rounded=0;orthogonalLoop=1;jettySize=auto;html=1;exitX=0.5;exitY=1;exitDx=0;exitDy=0;" edge="1" parent="q6OSs7CihoF1HEclPWef-31" source="q6OSs7CihoF1HEclPWef-32" target="q6OSs7CihoF1HEclPWef-32">
          <mxGeometry relative="1" as="geometry" />
        </mxCell>
        <mxCell id="q6OSs7CihoF1HEclPWef-41" style="rounded=0;orthogonalLoop=1;jettySize=auto;html=1;exitX=0;exitY=0;exitDx=0;exitDy=0;entryX=1;entryY=1;entryDx=0;entryDy=0;strokeWidth=2;endArrow=none;endFill=0;startArrow=block;startFill=1;" edge="1" parent="1" source="q6OSs7CihoF1HEclPWef-34" target="H1L8KWAx3ZCyEtPVx_r6-3">
          <mxGeometry relative="1" as="geometry" />
        </mxCell>
        <mxCell id="q6OSs7CihoF1HEclPWef-34" value="ViewCanvas" style="swimlane;childLayout=stackLayout;horizontal=1;startSize=50;horizontalStack=0;rounded=1;fontSize=14;fontStyle=0;strokeWidth=2;resizeParent=0;resizeLast=1;shadow=0;dashed=0;align=center;arcSize=4;whiteSpace=wrap;html=1;" vertex="1" parent="1">
          <mxGeometry x="295" y="280" width="160" height="100" as="geometry" />
        </mxCell>
        <mxCell id="q6OSs7CihoF1HEclPWef-35" value="+paintComponent&lt;br&gt;+updateState" style="align=left;strokeColor=none;fillColor=none;spacingLeft=4;fontSize=12;verticalAlign=top;resizable=0;rotatable=0;part=1;html=1;" vertex="1" parent="q6OSs7CihoF1HEclPWef-34">
          <mxGeometry y="50" width="160" height="50" as="geometry" />
        </mxCell>
        <mxCell id="q6OSs7CihoF1HEclPWef-36" style="edgeStyle=orthogonalEdgeStyle;rounded=0;orthogonalLoop=1;jettySize=auto;html=1;exitX=0.5;exitY=1;exitDx=0;exitDy=0;" edge="1" parent="q6OSs7CihoF1HEclPWef-34" source="q6OSs7CihoF1HEclPWef-35" target="q6OSs7CihoF1HEclPWef-35">
          <mxGeometry relative="1" as="geometry" />
        </mxCell>
        <mxCell id="q6OSs7CihoF1HEclPWef-45" style="edgeStyle=orthogonalEdgeStyle;rounded=0;orthogonalLoop=1;jettySize=auto;html=1;exitX=0.5;exitY=1;exitDx=0;exitDy=0;entryX=0.5;entryY=0;entryDx=0;entryDy=0;strokeWidth=2;endArrow=block;endFill=1;" edge="1" parent="1" source="H1L8KWAx3ZCyEtPVx_r6-38" target="H1L8KWAx3ZCyEtPVx_r6-6">
          <mxGeometry relative="1" as="geometry" />
        </mxCell>
        <mxCell id="q6OSs7CihoF1HEclPWef-46" style="edgeStyle=orthogonalEdgeStyle;rounded=0;orthogonalLoop=1;jettySize=auto;html=1;exitX=0.75;exitY=1;exitDx=0;exitDy=0;entryX=0.75;entryY=0;entryDx=0;entryDy=0;strokeWidth=2;endArrow=block;endFill=1;" edge="1" parent="1" source="H1L8KWAx3ZCyEtPVx_r6-38" target="H1L8KWAx3ZCyEtPVx_r6-8">
          <mxGeometry relative="1" as="geometry">
            <Array as="points">
              <mxPoint x="438" y="-120" />
              <mxPoint x="640" y="-120" />
            </Array>
          </mxGeometry>
        </mxCell>
        <mxCell id="q6OSs7CihoF1HEclPWef-47" style="edgeStyle=orthogonalEdgeStyle;rounded=0;orthogonalLoop=1;jettySize=auto;html=1;exitX=0.25;exitY=1;exitDx=0;exitDy=0;entryX=0.5;entryY=0;entryDx=0;entryDy=0;jumpStyle=arc;jumpSize=20;strokeWidth=2;endArrow=block;endFill=1;" edge="1" parent="1" source="H1L8KWAx3ZCyEtPVx_r6-38" target="H1L8KWAx3ZCyEtPVx_r6-2">
          <mxGeometry relative="1" as="geometry">
            <Array as="points">
              <mxPoint x="343" y="-110" />
              <mxPoint x="160" y="-110" />
            </Array>
          </mxGeometry>
        </mxCell>
        <mxCell id="q6OSs7CihoF1HEclPWef-48" style="edgeStyle=orthogonalEdgeStyle;rounded=0;orthogonalLoop=1;jettySize=auto;html=1;exitX=0;exitY=1;exitDx=0;exitDy=0;entryX=0.5;entryY=0;entryDx=0;entryDy=0;strokeWidth=2;endArrow=block;endFill=1;" edge="1" parent="1" source="H1L8KWAx3ZCyEtPVx_r6-38" target="q6OSs7CihoF1HEclPWef-24">
          <mxGeometry relative="1" as="geometry">
            <Array as="points">
              <mxPoint x="295" y="-140" />
              <mxPoint x="-60" y="-140" />
            </Array>
          </mxGeometry>
        </mxCell>
      </root>
    </mxGraphModel>
  </diagram>
</mxfile>
